<svg xmlns="http://www.w3.org/2000/svg" viewBox="0 0 200 200">
  <defs>
    <linearGradient id="gradient1" x1="0%" y1="0%" x2="100%" y2="100%">
      <stop offset="0%" style="stop-color:#00D4FF;stop-opacity:1" />
      <stop offset="50%" style="stop-color:#2D5BFF;stop-opacity:1" />
      <stop offset="100%" style="stop-color:#E91E8C;stop-opacity:1" />
    </linearGradient>
  </defs>
  
  <!-- Letra N -->
  <path d="M 30 50 L 30 150 L 50 150 L 50 85 L 95 150 L 115 150 L 115 50 L 95 50 L 95 115 L 50 50 Z" fill="url(#gradient1)"/>
  
  <!-- Letra C -->
  <path d="M 140 70 Q 125 50 100 50 Q 75 50 60 75 Q 45 100 60 125 Q 75 150 100 150 Q 125 150 140 130 L 120 115 Q 112 130 100 130 Q 85 130 75 115 Q 65 100 75 85 Q 85 70 100 70 Q 112 70 120 85 Z" fill="url(#gradient1)" transform="translate(60, 0)"/>
</svg>
